<svg width="60" height="18" viewBox="0 0 60 18" fill="none" xmlns="http://www.w3.org/2000/svg">
<rect y="13" width="13" height="3" rx="1.5" fill="#A855F7"/>
<rect x="47" y="6" width="13" height="3" rx="1.5" fill="#A855F7"/>
<path d="M7.2 15.084C6.40667 15.084 5.79067 14.86 5.352 14.412C4.91333 13.964 4.694 13.334 4.694 12.522V8.854H3.364V7.426H3.574C3.92867 7.426 4.204 7.32333 4.4 7.118C4.596 6.91267 4.694 6.63267 4.694 6.278V5.69H6.276V7.426H7.998V8.854H6.276V12.452C6.276 12.7133 6.318 12.9373 6.402 13.124C6.486 13.3013 6.62133 13.4413 6.808 13.544C6.99467 13.6373 7.23733 13.684 7.536 13.684C7.61067 13.684 7.69467 13.6793 7.788 13.67C7.88133 13.6607 7.97 13.6513 8.054 13.642V15C7.92333 15.0187 7.77867 15.0373 7.62 15.056C7.46133 15.0747 7.32133 15.084 7.2 15.084ZM11.7975 15.168C11.2841 15.168 10.8315 15.0793 10.4395 14.902C10.0568 14.7153 9.75814 14.4633 9.54347 14.146C9.3288 13.8193 9.22147 13.4367 9.22147 12.998C9.22147 12.5873 9.31014 12.2187 9.48747 11.892C9.67414 11.5653 9.9588 11.29 10.3415 11.066C10.7241 10.842 11.2048 10.6833 11.7835 10.59L14.4155 10.156V11.402L12.0915 11.808C11.6715 11.8827 11.3635 12.018 11.1675 12.214C10.9715 12.4007 10.8735 12.6433 10.8735 12.942C10.8735 13.2313 10.9808 13.4693 11.1955 13.656C11.4195 13.8333 11.7041 13.922 12.0495 13.922C12.4788 13.922 12.8521 13.8287 13.1695 13.642C13.4961 13.4553 13.7481 13.208 13.9255 12.9C14.1028 12.5827 14.1915 12.2327 14.1915 11.85V9.904C14.1915 9.53067 14.0515 9.22733 13.7715 8.994C13.5008 8.75133 13.1368 8.63 12.6795 8.63C12.2595 8.63 11.8908 8.742 11.5735 8.966C11.2655 9.18067 11.0368 9.46067 10.8875 9.806L9.57147 9.148C9.71147 8.77467 9.94014 8.448 10.2575 8.168C10.5748 7.87867 10.9435 7.65467 11.3635 7.496C11.7928 7.33733 12.2455 7.258 12.7215 7.258C13.3188 7.258 13.8461 7.37 14.3035 7.594C14.7701 7.818 15.1295 8.13067 15.3815 8.532C15.6428 8.924 15.7735 9.38133 15.7735 9.904V15H14.2615V13.628L14.5835 13.67C14.4061 13.978 14.1775 14.244 13.8975 14.468C13.6268 14.692 13.3141 14.8647 12.9595 14.986C12.6141 15.1073 12.2268 15.168 11.7975 15.168ZM20.4232 15.168C19.6486 15.168 18.9672 14.9767 18.3792 14.594C17.8006 14.2113 17.3946 13.698 17.1612 13.054L18.3792 12.48C18.5846 12.9093 18.8646 13.25 19.2192 13.502C19.5832 13.754 19.9846 13.88 20.4232 13.88C20.7966 13.88 21.0999 13.796 21.3332 13.628C21.5666 13.46 21.6832 13.2313 21.6832 12.942C21.6832 12.7553 21.6319 12.606 21.5292 12.494C21.4266 12.3727 21.2959 12.2747 21.1372 12.2C20.9879 12.1253 20.8339 12.0693 20.6752 12.032L19.4852 11.696C18.8319 11.5093 18.3419 11.2293 18.0152 10.856C17.6979 10.4733 17.5392 10.03 17.5392 9.526C17.5392 9.06867 17.6559 8.672 17.8892 8.336C18.1226 7.99067 18.4446 7.72467 18.8552 7.538C19.2659 7.35133 19.7279 7.258 20.2412 7.258C20.9319 7.258 21.5479 7.43067 22.0892 7.776C22.6306 8.112 23.0132 8.58333 23.2372 9.19L22.0192 9.764C21.8699 9.4 21.6319 9.11067 21.3052 8.896C20.9879 8.68133 20.6286 8.574 20.2272 8.574C19.8819 8.574 19.6066 8.658 19.4012 8.826C19.1959 8.98467 19.0932 9.19467 19.0932 9.456C19.0932 9.63333 19.1399 9.78267 19.2332 9.904C19.3266 10.016 19.4479 10.1093 19.5972 10.184C19.7466 10.2493 19.9006 10.3053 20.0592 10.352L21.2912 10.716C21.9166 10.8933 22.3972 11.1733 22.7332 11.556C23.0692 11.9293 23.2372 12.3773 23.2372 12.9C23.2372 13.348 23.1159 13.7447 22.8732 14.09C22.6399 14.426 22.3132 14.692 21.8932 14.888C21.4732 15.0747 20.9832 15.168 20.4232 15.168ZM24.7873 15V4.402H26.3693V11.5L25.7533 11.346L29.5473 7.426H31.5213L28.6653 10.464L31.6473 15H29.8273L27.1673 10.982L28.1053 10.856L25.8653 13.236L26.3693 12.186V15H24.7873ZM32.7306 15V4.402H34.3126V8.91L34.0606 8.714C34.2473 8.238 34.546 7.87867 34.9566 7.636C35.3673 7.384 35.8433 7.258 36.3846 7.258C36.9446 7.258 37.4393 7.37933 37.8686 7.622C38.298 7.86467 38.634 8.20067 38.8766 8.63C39.1193 9.05933 39.2406 9.54933 39.2406 10.1V15H37.6726V10.534C37.6726 10.1513 37.598 9.82933 37.4486 9.568C37.3086 9.29733 37.1126 9.092 36.8606 8.952C36.6086 8.80267 36.3193 8.728 35.9926 8.728C35.6753 8.728 35.386 8.80267 35.1246 8.952C34.8726 9.092 34.672 9.29733 34.5226 9.568C34.3826 9.83867 34.3126 10.1607 34.3126 10.534V15H32.7306ZM43.6358 15.168C43.0664 15.168 42.5671 15.042 42.1378 14.79C41.7084 14.5287 41.3724 14.1693 41.1298 13.712C40.8964 13.2453 40.7798 12.7087 40.7798 12.102V7.426H42.3618V11.962C42.3618 12.3073 42.4318 12.6107 42.5718 12.872C42.7118 13.1333 42.9078 13.3387 43.1598 13.488C43.4118 13.628 43.7011 13.698 44.0278 13.698C44.3638 13.698 44.6578 13.6233 44.9098 13.474C45.1618 13.3247 45.3578 13.1147 45.4978 12.844C45.6471 12.5733 45.7218 12.256 45.7218 11.892V7.426H47.2898V15H45.7918V13.516L45.9598 13.712C45.7824 14.1787 45.4884 14.538 45.0778 14.79C44.6671 15.042 44.1864 15.168 43.6358 15.168ZM53.1829 15.168C52.5949 15.168 52.0582 15.0467 51.5729 14.804C51.0969 14.5613 50.7282 14.2113 50.4669 13.754L50.6489 13.46V15H49.1369V4.402H50.7189V8.994L50.4669 8.63C50.7469 8.20067 51.1202 7.86467 51.5869 7.622C52.0536 7.37933 52.5856 7.258 53.1829 7.258C53.9016 7.258 54.5456 7.43067 55.1149 7.776C55.6936 8.12133 56.1462 8.59267 56.4729 9.19C56.8089 9.78733 56.9769 10.4593 56.9769 11.206C56.9769 11.9527 56.8089 12.6247 56.4729 13.222C56.1462 13.8193 55.6982 14.2953 55.1289 14.65C54.5596 14.9953 53.9109 15.168 53.1829 15.168ZM53.0289 13.698C53.4769 13.698 53.8736 13.5907 54.2189 13.376C54.5642 13.1613 54.8349 12.8673 55.0309 12.494C55.2362 12.1113 55.3389 11.682 55.3389 11.206C55.3389 10.73 55.2362 10.3053 55.0309 9.932C54.8349 9.55867 54.5642 9.26467 54.2189 9.05C53.8736 8.83533 53.4769 8.728 53.0289 8.728C52.5902 8.728 52.1936 8.83533 51.8389 9.05C51.4936 9.26467 51.2182 9.55867 51.0129 9.932C50.8169 10.3053 50.7189 10.73 50.7189 11.206C50.7189 11.682 50.8169 12.1113 51.0129 12.494C51.2182 12.8673 51.4936 13.1613 51.8389 13.376C52.1936 13.5907 52.5902 13.698 53.0289 13.698Z" fill="black"/>
</svg>
